solid ASCII
  facet normal 0.000000e+00 4.211709e-17 -1.000000e+00
    outer loop
      vertex   1.110223e-15 1.000000e+01 -1.588690e-15
      vertex   8.660254e+00 -5.000000e+00 -2.220446e-15
      vertex   -8.660254e+00 -5.000000e+00 -2.220446e-15
    endloop
  endfacet
  facet normal 0.000000e+00 -9.428090e-01 3.333333e-01
    outer loop
      vertex   -8.660254e+00 -5.000000e+00 -2.220446e-15
      vertex   8.660254e+00 -5.000000e+00 -2.220446e-15
      vertex   6.661338e-15 4.996004e-15 1.414214e+01
    endloop
  endfacet
  facet normal -8.164966e-01 4.714045e-01 3.333333e-01
    outer loop
      vertex   6.661338e-15 4.996004e-15 1.414214e+01
      vertex   1.110223e-15 1.000000e+01 -1.588690e-15
      vertex   -8.660254e+00 -5.000000e+00 -2.220446e-15
    endloop
  endfacet
  facet normal 8.164966e-01 4.714045e-01 3.333333e-01
    outer loop
      vertex   1.110223e-15 1.000000e+01 -1.588690e-15
      vertex   6.661338e-15 4.996004e-15 1.414214e+01
      vertex   8.660254e+00 -5.000000e+00 -2.220446e-15
    endloop
  endfacet
endsolid
